<svg xmlns="http://www.w3.org/2000/svg" fill="none" viewBox="0 0 30 30" id="Git--Streamline-Svg-Logos" height="30" width="30">
  <desc>
    Git Streamline Icon: https://streamlinehq.com
  </desc>
  <path fill="#2f2707" d="M17.9171875 13.041437499999999c-0.6440625 0 -1.12375 0.31625000000000003 -1.12375 1.0773437499999998 0 0.57346875 0.31609375 0.971625 1.0890625 0.971625 0.6550937499999999 0 1.1000625 -0.38606250000000003 1.1000625 -0.9952812499999999 0 -0.6905 -0.39815625 -1.0536874999999999 -1.065375 -1.0536874999999999Zm-1.28771875 5.37425c-0.1524375 0.18696875000000002 -0.30428125 0.3858125 -0.30428125 0.62025 0 0.468 0.59671875 0.60884375 1.41646875 0.60884375 0.67903125 0 1.60396875 -0.047625 1.60396875 -0.6789062499999999 0 -0.37531250000000005 -0.44496874999999997 -0.3984375 -1.00725 -0.4336875l-1.7089062499999998 -0.1165Zm3.4652812500000003 -5.338875c0.21040625000000002 0.2693125 0.43315625 0.6440625 0.43315625 1.1825625 0 1.2994375 -1.0185625 2.06025 -2.49328125 2.06025 -0.37503125 0 -0.7145625 -0.046656249999999996 -0.92509375 -0.1051875l-0.38646874999999997 0.62040625 1.1471875 0.0700625c2.0255625 0.12915625 3.21928125 0.1878125 3.21928125 1.7441875000000002 0 1.34665625 -1.18215625 2.10721875 -3.21928125 2.10721875 -2.1189375 0 -2.92671875 -0.5385 -2.92671875 -1.4633125 0 -0.526875 0.23421875000000003 -0.80721875 0.6439375 -1.1942187499999999 -0.38646874999999997 -0.16331249999999997 -0.5150625 -0.45590625 -0.5150625 -0.77215625 0 -0.25771875 0.12859375 -0.49178125000000006 0.33965625 -0.7144062499999999 0.21065625000000002 -0.22209375 0.44471875 -0.44484375 0.72571875 -0.7023124999999999 -0.5735625 -0.28103125 -1.00684375 -0.88984375 -1.00684375 -1.75628125 0 -1.346125 0.8898125 -2.27065625 2.6806562499999997 -2.27065625 0.5035 0 0.8080624999999999 0.04628125 1.0773437499999998 0.11703125h2.28303125v0.9947499999999999l-1.07721875 0.0820625Z" stroke-width="0.3125"></path>
  <path fill="#2f2707" d="M23.231375 10.94940625c-0.6674687499999999 0 -1.05365625 -0.38659375 -1.05365625 -1.05421875 0 -0.6666562500000001 0.3861875 -1.0298749999999999 1.05365625 -1.0298749999999999 0.6790625 0 1.065375 0.36321875000000003 1.065375 1.0298749999999999 0 0.667625 -0.3863125 1.05421875 -1.065375 1.05421875Zm-1.5105 7.03540625v-0.92440625l0.59728125 -0.08165624999999999c0.16396875000000002 -0.0236875 0.18724999999999997 -0.05865625 0.18724999999999997 -0.23459375000000002V13.30225c0 -0.12846875000000002 -0.035 -0.21078125 -0.15240625000000002 -0.245625l-0.632125 -0.22262500000000002 0.12875 -0.9479375h2.4235937499999998v4.85809375c0 0.18765625000000002 0.011312500000000001 0.21090625000000002 0.187375 0.23459375000000002l0.597125 0.08165624999999999v0.92440625H21.720875Z" stroke-width="0.3125"></path>
  <path fill="#2f2707" d="M29.687593749999998 17.53096875c-0.5036562499999999 0.245625 -1.2410625 0.46809375 -1.9086875 0.46809375 -1.3930624999999999 0 -1.9196875 -0.56134375 -1.9196875 -1.8848437500000002v-3.06715625c0 -0.0700625 0 -0.11703125 -0.09403125 -0.11703125h-0.81934375v-1.0419687499999999c1.03053125 -0.11728125 1.44 -0.6325000000000001 1.56871875 -1.9085312500000002h1.11234375v1.66290625c0 0.08165624999999999 0 0.11703125 0.09375 0.11703125h1.65053125v1.1705625h-1.7442812499999998v2.7978437499999997c0 0.69075 0.16409375 0.95978125 0.7959375000000001 0.95978125 0.32821875 0 0.66734375 -0.08178125 0.94834375 -0.18709375l0.31640625 1.03040625Z" stroke-width="0.3125"></path>
  <path fill="#de4c36" d="M12.3411875 14.45871875 6.9883125 9.10625c-0.3080625 -0.3083125 -0.8080624999999999 -0.3083125 -1.1165 0l-1.11153125 1.11153125 1.41003125 1.41c0.3276875 -0.11068750000000001 0.703375 -0.0364375 0.9646250000000001 0.22478125000000002 0.2624375 0.26287499999999997 0.33615625000000005 0.6418124999999999 0.22275 0.9705625l1.35890625 1.35890625c0.32875 -0.11328125 0.70809375 -0.039968750000000004 0.9706874999999999 0.22303125000000001 0.36696874999999995 0.3668125 0.36696874999999995 0.961375 0 1.32846875 -0.36709375 0.36712500000000003 -0.9616875 0.36712500000000003 -1.3289062500000002 0 -0.27603125 -0.27628125 -0.34421874999999996 -0.68171875 -0.20446875 -1.0217812499999999l-1.26728125 -1.26728125 -0.00015625 3.3349374999999997c0.08946875 0.04440625 0.1739375 0.10346875 0.24846875000000002 0.17771874999999998 0.36696874999999995 0.3668125 0.36696874999999995 0.9614062499999999 0 1.3287499999999999 -0.36709375 0.36696874999999995 -0.9619374999999999 0.36696874999999995 -1.3285 0 -0.36696874999999995 -0.36734374999999997 -0.36696874999999995 -0.9619374999999999 0 -1.3287499999999999 0.09065625000000001 -0.09053125000000001 0.19559375 -0.159 0.3075 -0.20500000000000002V13.3860625c-0.11190624999999998 -0.04571875 -0.2166875 -0.11378125 -0.3075 -0.20500000000000002 -0.2780625 -0.277625 -0.34490624999999997 -0.6856249999999999 -0.20243750000000002 -1.02703125l-1.3898437499999998 -1.39009375L0.5438375 14.433968749999998c-0.3084496875 0.30859375 -0.3084496875 0.80859375 0 1.11690625L5.8966875 20.90346875c0.3081875 0.3083125 0.8080624999999999 0.3083125 1.1166562500000001 0l5.3278437499999995 -5.32771875c0.3083125 -0.3084375 0.3083125 -0.8087187499999999 0 -1.11703125Z" stroke-width="0.3125"></path>
</svg>